<svg width="122" height="57" viewBox="0 0 122 57" fill="none" xmlns="http://www.w3.org/2000/svg">
<path d="M11.422 32.9871H7.68368V43.8987H3.72083V32.9871H0V29.2661H11.422V32.9871Z" fill="#2E367F"/>
<path d="M26.6217 43.8971H23.4622L18.0588 36.3302L17.7789 35.7451V43.8971H13.8161V29.2661H17.1811L22.3789 36.4978L22.6589 37.0829V29.2661H26.6217V43.8971Z" fill="#2E367F"/>
<path d="M40.9408 34.5954C40.9408 37.1035 39.3137 39.9674 35.8378 39.9674H33.2396V43.8971H29.2767V29.2661H35.969C39.353 29.2661 40.9422 31.7948 40.9422 34.5954H40.9408ZM36.94 34.6175C36.94 33.4268 36.4356 32.9666 35.4441 32.9666H33.2381V36.4361H35.3697C36.6032 36.4361 36.94 35.4541 36.94 34.6175Z" fill="#2E367F"/>
<path d="M61.1312 42.0168C60.4765 42.5608 58.4762 44.1485 55.2613 44.1485C51.017 44.1485 47.9508 41.0964 47.9508 36.6654C47.9508 32.2343 51.1293 29.0146 55.4289 29.0146C57.4672 29.0146 59.3553 29.7247 60.6267 31.0009L58.794 33.9059C57.6903 33.1958 56.607 32.84 55.4479 32.84C53.204 32.84 51.9895 34.3028 51.9895 36.6859C51.9895 39.2146 53.3352 40.5113 55.4479 40.5113C56.6449 40.5113 57.3549 40.1144 57.6538 39.9056V38.6089H55.0367V35.1805H61.1312V42.0152V42.0168Z" fill="#2E367F"/>
<path d="M69.7495 39.9468H67.5814V43.8971H63.6185V29.2661H70.8911C74.2751 29.2661 75.8833 31.7948 75.8833 34.4072C75.8833 36.2464 75.1353 38.1488 73.5461 39.1735L76.5933 43.8971H72.1245L69.7509 39.9468H69.7495ZM67.5799 36.2891H70.0104C71.432 36.2891 71.8606 35.4952 71.8606 34.5337C71.8606 33.4679 71.2818 32.9871 70.0848 32.9871H67.5799V36.2891Z" fill="#2E367F"/>
<path d="M92.6503 36.5816C92.6503 41.0332 89.4719 44.1485 85.2845 44.1485C81.0971 44.1485 77.8997 41.0348 77.8997 36.5816C77.8997 32.1284 81.0781 29.0146 85.2845 29.0146C89.4908 29.0146 92.6503 32.1284 92.6503 36.5816ZM88.6306 36.5816C88.6306 34.3249 87.2849 32.84 85.2845 32.84C83.2841 32.84 81.9383 34.3234 81.9383 36.5816C81.9383 38.8398 83.2476 40.3026 85.2845 40.3026C87.3213 40.3026 88.6306 38.8398 88.6306 36.5816Z" fill="#2E367F"/>
<path d="M107.681 37.6902C107.681 42.058 104.82 44.1691 101.307 44.1691C97.7928 44.1691 94.9132 42.058 94.9132 37.6902V29.2661H98.8761V37.668C98.8761 39.3617 99.9229 40.2805 101.307 40.2805C102.69 40.2805 103.699 39.3601 103.699 37.668V29.2661H107.681V37.6902Z" fill="#2E367F"/>
<path d="M122 34.5954C122 37.1035 120.373 39.9674 116.896 39.9674H114.297V43.8971H110.334V29.2661H117.027C120.411 29.2661 122 31.7948 122 34.5954ZM117.999 34.6175C117.999 33.4268 117.495 32.9666 116.503 32.9666H114.297V36.4361H116.429C117.662 36.4361 117.999 35.4541 117.999 34.6175Z" fill="#2E367F"/>
<path d="M11.2295 50.4649V55.8827H13.7198V56.5295H10.6069V50.4633H11.2295V50.4649Z" fill="#2E367F"/>
<path d="M16.3442 50.4645V56.5307H15.7348V50.4645H16.3442Z" fill="#2E367F"/>
<path d="M19.0196 50.4645L20.5768 55.6198L22.1937 50.4645H22.8294L20.9078 56.5307H20.2327L18.365 50.4645H19.0211H19.0196Z" fill="#2E367F"/>
<path d="M28.1555 50.4645V51.1366H25.4057V53.0311H28.0957V53.6383H25.4057V55.8681H28.1817V56.5307H24.8167V50.4645H28.1555Z" fill="#2E367F"/>
<path d="M34.2893 50.4649V55.8827H36.7796V56.5295H33.6653V50.4633H34.2879L34.2893 50.4649Z" fill="#2E367F"/>
<path d="M39.404 50.4645V56.5307H38.7946V50.4645H39.404Z" fill="#2E367F"/>
<path d="M42.0809 50.4645L43.6381 55.6198L45.255 50.4645H45.8907L43.969 56.5307H43.294L41.4263 50.4645H42.0824H42.0809Z" fill="#2E367F"/>
<path d="M51.2153 50.4645V51.1366H48.4655V53.0311H51.1555V53.6383H48.4655V55.8681H51.2416V56.5307H47.8765V50.4645H51.2153Z" fill="#2E367F"/>
<path d="M60.0931 50.4645V51.1113H58.5694V56.5291H57.9527V51.1113H56.4291V50.4645H60.0931Z" fill="#2E367F"/>
<path d="M65.9033 53.5011C65.9033 55.8115 65.7239 56.6022 63.8227 56.6022C61.9215 56.6022 61.729 55.8115 61.729 53.5011C61.729 51.1907 61.9011 50.3763 63.8227 50.3763C65.7444 50.3763 65.9033 51.1923 65.9033 53.5011ZM62.3516 53.1342V53.7968C62.3516 55.3308 62.4843 55.9871 63.8154 55.9871C65.1466 55.9871 65.2793 55.3403 65.2793 53.8048V53.1327C65.2793 51.6541 65.1335 50.9994 63.8154 50.9994C62.4974 50.9994 62.3516 51.6541 62.3516 53.1327V53.1342Z" fill="#2E367F"/>
<path d="M74.7533 50.4645V51.1113H73.2297V56.5291H72.613V51.1113H71.0894V50.4645H74.7533Z" fill="#2E367F"/>
<path d="M77.3164 50.4645V53.0532H80.0983V50.4645H80.7209V56.5307H80.0983V53.6937H77.3164V56.5307H76.6939V50.4645H77.3164Z" fill="#2E367F"/>
<path d="M86.3066 50.4645V51.1366H83.5568V53.0311H86.2468V53.6383H83.5568V55.8681H86.3329V56.5307H82.9678V50.4645H86.3066Z" fill="#2E367F"/>
<path d="M95.1376 50.4649V51.1038H92.4418V53.2449H95.0123V53.8838H92.4418V56.5295H91.8192V50.4633H95.1376V50.4649Z" fill="#2E367F"/>
<path d="M97.7212 50.4645V54.9003C97.7212 55.7716 98.0653 55.9709 99.0597 55.9709C100.054 55.9709 100.372 55.7716 100.372 54.9003V50.4645H100.989V54.9003C100.989 56.2824 100.538 56.6018 99.067 56.6018C97.5959 56.6018 97.106 56.2824 97.106 54.9003V50.4645H97.7227H97.7212Z" fill="#2E367F"/>
<path d="M103.822 50.4649V55.8827H106.312V56.5295H103.198V50.4633H103.82L103.822 50.4649Z" fill="#2E367F"/>
<path d="M108.903 50.4649V55.8827H111.393V56.5295H108.279V50.4633H108.901L108.903 50.4649Z" fill="#2E367F"/>
<path d="M23.4097 20.3411C23.4097 20.3411 31.6387 8.36369 48.5296 2.25638C65.4192 -3.84935 84.2595 4.37069 84.2595 4.37069C84.2595 4.37069 93.5703 9.0674 94.0033 10.2424C94.0033 10.2424 100.716 15.6444 97.9006 19.4018C97.9006 19.4018 96.1685 21.5161 93.7861 21.5161C93.7861 21.5161 93.2452 22.5724 86.5325 16.9364C79.8199 11.3003 55.5674 -4.67167 23.4111 20.3427L23.4097 20.3411Z" fill="url(#paint0_linear_264_1460)"/>
<defs>
<linearGradient id="paint0_linear_264_1460" x1="23.4097" y1="10.7974" x2="98.5902" y2="10.7974" gradientUnits="userSpaceOnUse">
<stop stop-color="#F6EB16"/>
<stop offset="1" stop-color="#F15B27"/>
</linearGradient>
</defs>
</svg>
